<svg xmlns="http://www.w3.org/2000/svg" width="640" height="640" viewBox="0 0 640 640"
  style="background-color: transparent;">
  <g>


    <rect x=" 290" y=" 170" width=" 10" height=" 10" fill="rgb(204,204,204)" />
    <rect x=" 300" y=" 170" width=" 10" height=" 10" fill="rgb(204,204,204)" />
    <rect x=" 310" y=" 170" width=" 10" height=" 10" fill="rgb(204,204,204)" />
    <rect x=" 320" y=" 170" width=" 10" height=" 10" fill="rgb(204,204,204)" />
    <rect x=" 330" y=" 170" width=" 10" height=" 10" fill="rgb(204,204,204)" />
    <rect x=" 340" y=" 170" width=" 10" height=" 10" fill="rgb(204,204,204)" />


    <rect x=" 260" y=" 180" width=" 10" height=" 10" fill="rgb(204,204,204)" />
    <rect x=" 270" y=" 180" width=" 10" height=" 10" fill="rgb(153,153,153)" />
    <rect x=" 280" y=" 180" width=" 10" height=" 10" fill="rgb(102,102,102)" />
    <rect x=" 290" y=" 180" width=" 10" height=" 10" fill="rgb(51,51,51)" />
    <rect x=" 300" y=" 180" width=" 10" height=" 10" fill="rgb(51,51,51)" />
    <rect x=" 310" y=" 180" width=" 10" height=" 10" fill="rgb(153,153,153)" />
    <rect x=" 320" y=" 180" width=" 10" height=" 10" fill="rgb(204,204,204)" />
    <rect x=" 330" y=" 180" width=" 10" height=" 10" fill="rgb(102,102,102)" />
    <rect x=" 340" y=" 180" width=" 10" height=" 10" fill="rgb(51,51,51)" />
    <rect x=" 350" y=" 180" width=" 10" height=" 10" fill="rgb(102,102,102)" />
    <rect x=" 360" y=" 180" width=" 10" height=" 10" fill="rgb(153,153,153)" />
    <rect x=" 370" y=" 180" width=" 10" height=" 10" fill="rgb(204,204,204)" />


    <rect x=" 240" y=" 190" width=" 10" height=" 10" fill="rgb(204,204,204)" />
    <rect x=" 250" y=" 190" width=" 10" height=" 10" fill="rgb(153,153,153)" />
    <rect x=" 260" y=" 190" width=" 10" height=" 10" fill="rgb(51,51,51)" />
    <rect x=" 270" y=" 190" width=" 10" height=" 10" fill="rgb(51,51,51)" />
    <rect x=" 280" y=" 190" width=" 10" height=" 10" fill="rgb(102,102,102)" />
    <rect x=" 290" y=" 190" width=" 10" height=" 10" fill="rgb(102,102,102)" />
    <rect x=" 300" y=" 190" width=" 10" height=" 10" fill="rgb(153,153,153)" />
    <rect x=" 310" y=" 190" width=" 10" height=" 10" fill="rgb(153,153,153)" />
    <rect x=" 320" y=" 190" width=" 10" height=" 10" fill="rgb(153,153,153)" />
    <rect x=" 330" y=" 190" width=" 10" height=" 10" fill="rgb(204,204,204)" />
    <rect x=" 340" y=" 190" width=" 10" height=" 10" fill="rgb(51,51,51)" />
    <rect x=" 350" y=" 190" width=" 10" height=" 10" fill="rgb(0,0,0)" />
    <rect x=" 360" y=" 190" width=" 10" height=" 10" fill="rgb(0,0,0)" />
    <rect x=" 370" y=" 190" width=" 10" height=" 10" fill="rgb(51,51,51)" />
    <rect x=" 380" y=" 190" width=" 10" height=" 10" fill="rgb(153,153,153)" />
    <rect x=" 390" y=" 190" width=" 10" height=" 10" fill="rgb(204,204,204)" />


    <rect x=" 230" y=" 200" width=" 10" height=" 10" fill="rgb(204,204,204)" />
    <rect x=" 240" y=" 200" width=" 10" height=" 10" fill="rgb(51,51,51)" />
    <rect x=" 250" y=" 200" width=" 10" height=" 10" fill="rgb(51,51,51)" />
    <rect x=" 260" y=" 200" width=" 10" height=" 10" fill="rgb(102,102,102)" />
    <rect x=" 270" y=" 200" width=" 10" height=" 10" fill="rgb(204,204,204)" />
    <rect x=" 280" y=" 200" width=" 10" height=" 10" fill="rgb(204,204,204)" />
    <rect x=" 290" y=" 200" width=" 10" height=" 10" fill="rgb(204,204,204)" />
    <rect x=" 300" y=" 200" width=" 10" height=" 10" fill="rgb(204,204,204)" />
    <rect x=" 310" y=" 200" width=" 10" height=" 10" fill="rgb(204,204,204)" />
    <rect x=" 320" y=" 200" width=" 10" height=" 10" fill="rgb(204,204,204)" />
    <rect x=" 330" y=" 200" width=" 10" height=" 10" fill="rgb(204,204,204)" />
    <rect x=" 340" y=" 200" width=" 10" height=" 10" fill="rgb(153,153,153)" />
    <rect x=" 350" y=" 200" width=" 10" height=" 10" fill="rgb(102,102,102)" />
    <rect x=" 360" y=" 200" width=" 10" height=" 10" fill="rgb(51,51,51)" />
    <rect x=" 370" y=" 200" width=" 10" height=" 10" fill="rgb(0,0,0)" />
    <rect x=" 380" y=" 200" width=" 10" height=" 10" fill="rgb(51,51,51)" />
    <rect x=" 390" y=" 200" width=" 10" height=" 10" fill="rgb(102,102,102)" />
    <rect x=" 400" y=" 200" width=" 10" height=" 10" fill="rgb(204,204,204)" />


    <rect x=" 220" y=" 210" width=" 10" height=" 10" fill="rgb(204,204,204)" />
    <rect x=" 230" y=" 210" width=" 10" height=" 10" fill="rgb(51,51,51)" />
    <rect x=" 240" y=" 210" width=" 10" height=" 10" fill="rgb(153,153,153)" />
    <rect x=" 250" y=" 210" width=" 10" height=" 10" fill="rgb(204,204,204)" />
    <rect x=" 260" y=" 210" width=" 10" height=" 10" fill="rgb(204,204,204)" />
    <rect x=" 270" y=" 210" width=" 10" height=" 10" fill="rgb(204,204,204)" />
    <rect x=" 280" y=" 210" width=" 10" height=" 10" fill="rgb(204,204,204)" />
    <rect x=" 290" y=" 210" width=" 10" height=" 10" fill="rgb(204,204,204)" />
    <rect x=" 300" y=" 210" width=" 10" height=" 10" fill="rgb(204,204,204)" />
    <rect x=" 310" y=" 210" width=" 10" height=" 10" fill="rgb(204,204,204)" />
    <rect x=" 320" y=" 210" width=" 10" height=" 10" fill="rgb(204,204,204)" />
    <rect x=" 330" y=" 210" width=" 10" height=" 10" fill="rgb(204,204,204)" />
    <rect x=" 340" y=" 210" width=" 10" height=" 10" fill="rgb(204,204,204)" />
    <rect x=" 350" y=" 210" width=" 10" height=" 10" fill="rgb(204,204,204)" />
    <rect x=" 360" y=" 210" width=" 10" height=" 10" fill="rgb(153,153,153)" />
    <rect x=" 370" y=" 210" width=" 10" height=" 10" fill="rgb(0,0,0)" />
    <rect x=" 380" y=" 210" width=" 10" height=" 10" fill="rgb(0,0,0)" />
    <rect x=" 390" y=" 210" width=" 10" height=" 10" fill="rgb(0,0,0)" />
    <rect x=" 400" y=" 210" width=" 10" height=" 10" fill="rgb(51,51,51)" />
    <rect x=" 410" y=" 210" width=" 10" height=" 10" fill="rgb(204,204,204)" />


    <rect x=" 210" y=" 220" width=" 10" height=" 10" fill="rgb(204,204,204)" />
    <rect x=" 220" y=" 220" width=" 10" height=" 10" fill="rgb(51,51,51)" />
    <rect x=" 230" y=" 220" width=" 10" height=" 10" fill="rgb(102,102,102)" />
    <rect x=" 240" y=" 220" width=" 10" height=" 10" fill="rgb(153,153,153)" />
    <rect x=" 250" y=" 220" width=" 10" height=" 10" fill="rgb(153,153,153)" />
    <rect x=" 260" y=" 220" width=" 10" height=" 10" fill="rgb(153,153,153)" />
    <rect x=" 270" y=" 220" width=" 10" height=" 10" fill="rgb(204,204,204)" />
    <rect x=" 280" y=" 220" width=" 10" height=" 10" fill="rgb(153,153,153)" />
    <rect x=" 290" y=" 220" width=" 10" height=" 10" fill="rgb(153,153,153)" />
    <rect x=" 300" y=" 220" width=" 10" height=" 10" fill="rgb(204,204,204)" />
    <rect x=" 310" y=" 220" width=" 10" height=" 10" fill="rgb(204,204,204)" />
    <rect x=" 320" y=" 220" width=" 10" height=" 10" fill="rgb(153,153,153)" />
    <rect x=" 330" y=" 220" width=" 10" height=" 10" fill="rgb(153,153,153)" />
    <rect x=" 340" y=" 220" width=" 10" height=" 10" fill="rgb(153,153,153)" />
    <rect x=" 350" y=" 220" width=" 10" height=" 10" fill="rgb(204,204,204)" />
    <rect x=" 360" y=" 220" width=" 10" height=" 10" fill="rgb(153,153,153)" />
    <rect x=" 370" y=" 220" width=" 10" height=" 10" fill="rgb(102,102,102)" />
    <rect x=" 380" y=" 220" width=" 10" height=" 10" fill="rgb(0,0,0)" />
    <rect x=" 390" y=" 220" width=" 10" height=" 10" fill="rgb(0,0,0)" />
    <rect x=" 400" y=" 220" width=" 10" height=" 10" fill="rgb(51,51,51)" />
    <rect x=" 410" y=" 220" width=" 10" height=" 10" fill="rgb(102,102,102)" />
    <rect x=" 420" y=" 220" width=" 10" height=" 10" fill="rgb(204,204,204)" />


    <rect x=" 200" y=" 230" width=" 10" height=" 10" fill="rgb(204,204,204)" />
    <rect x=" 210" y=" 230" width=" 10" height=" 10" fill="rgb(102,102,102)" />
    <rect x=" 220" y=" 230" width=" 10" height=" 10" fill="rgb(0,0,0)" />
    <rect x=" 230" y=" 230" width=" 10" height=" 10" fill="rgb(102,102,102)" />
    <rect x=" 240" y=" 230" width=" 10" height=" 10" fill="rgb(51,51,51)" />
    <rect x=" 250" y=" 230" width=" 10" height=" 10" fill="rgb(0,0,0)" />
    <rect x=" 260" y=" 230" width=" 10" height=" 10" fill="rgb(51,51,51)" />
    <rect x=" 270" y=" 230" width=" 10" height=" 10" fill="rgb(102,102,102)" />
    <rect x=" 280" y=" 230" width=" 10" height=" 10" fill="rgb(102,102,102)" />
    <rect x=" 290" y=" 230" width=" 10" height=" 10" fill="rgb(153,153,153)" />
    <rect x=" 300" y=" 230" width=" 10" height=" 10" fill="rgb(102,102,102)" />
    <rect x=" 310" y=" 230" width=" 10" height=" 10" fill="rgb(102,102,102)" />
    <rect x=" 320" y=" 230" width=" 10" height=" 10" fill="rgb(51,51,51)" />
    <rect x=" 330" y=" 230" width=" 10" height=" 10" fill="rgb(0,0,0)" />
    <rect x=" 340" y=" 230" width=" 10" height=" 10" fill="rgb(0,0,0)" />
    <rect x=" 350" y=" 230" width=" 10" height=" 10" fill="rgb(51,51,51)" />
    <rect x=" 360" y=" 230" width=" 10" height=" 10" fill="rgb(102,102,102)" />
    <rect x=" 370" y=" 230" width=" 10" height=" 10" fill="rgb(153,153,153)" />
    <rect x=" 380" y=" 230" width=" 10" height=" 10" fill="rgb(102,102,102)" />
    <rect x=" 390" y=" 230" width=" 10" height=" 10" fill="rgb(51,51,51)" />
    <rect x=" 400" y=" 230" width=" 10" height=" 10" fill="rgb(0,0,0)" />
    <rect x=" 410" y=" 230" width=" 10" height=" 10" fill="rgb(51,51,51)" />
    <rect x=" 420" y=" 230" width=" 10" height=" 10" fill="rgb(102,102,102)" />
    <rect x=" 430" y=" 230" width=" 10" height=" 10" fill="rgb(204,204,204)" />


    <rect x=" 200" y=" 240" width=" 10" height=" 10" fill="rgb(153,153,153)" />
    <rect x=" 210" y=" 240" width=" 10" height=" 10" fill="rgb(51,51,51)" />
    <rect x=" 220" y=" 240" width=" 10" height=" 10" fill="rgb(0,0,0)" />
    <rect x=" 230" y=" 240" width=" 10" height=" 10" fill="rgb(51,51,51)" />
    <rect x=" 240" y=" 240" width=" 10" height=" 10" fill="rgb(102,102,102)" />
    <rect x=" 250" y=" 240" width=" 10" height=" 10" fill="rgb(102,102,102)" />
    <rect x=" 260" y=" 240" width=" 10" height=" 10" fill="rgb(51,51,51)" />
    <rect x=" 270" y=" 240" width=" 10" height=" 10" fill="rgb(51,51,51)" />
    <rect x=" 280" y=" 240" width=" 10" height=" 10" fill="rgb(102,102,102)" />
    <rect x=" 290" y=" 240" width=" 10" height=" 10" fill="rgb(153,153,153)" />
    <rect x=" 300" y=" 240" width=" 10" height=" 10" fill="rgb(102,102,102)" />
    <rect x=" 310" y=" 240" width=" 10" height=" 10" fill="rgb(51,51,51)" />
    <rect x=" 320" y=" 240" width=" 10" height=" 10" fill="rgb(51,51,51)" />
    <rect x=" 330" y=" 240" width=" 10" height=" 10" fill="rgb(51,51,51)" />
    <rect x=" 340" y=" 240" width=" 10" height=" 10" fill="rgb(51,51,51)" />
    <rect x=" 350" y=" 240" width=" 10" height=" 10" fill="rgb(51,51,51)" />
    <rect x=" 360" y=" 240" width=" 10" height=" 10" fill="rgb(51,51,51)" />
    <rect x=" 370" y=" 240" width=" 10" height=" 10" fill="rgb(153,153,153)" />
    <rect x=" 380" y=" 240" width=" 10" height=" 10" fill="rgb(153,153,153)" />
    <rect x=" 390" y=" 240" width=" 10" height=" 10" fill="rgb(102,102,102)" />
    <rect x=" 400" y=" 240" width=" 10" height=" 10" fill="rgb(0,0,0)" />
    <rect x=" 410" y=" 240" width=" 10" height=" 10" fill="rgb(51,51,51)" />
    <rect x=" 420" y=" 240" width=" 10" height=" 10" fill="rgb(51,51,51)" />
    <rect x=" 430" y=" 240" width=" 10" height=" 10" fill="rgb(153,153,153)" />


    <rect x=" 190" y=" 250" width=" 10" height=" 10" fill="rgb(204,204,204)" />
    <rect x=" 200" y=" 250" width=" 10" height=" 10" fill="rgb(153,153,153)" />
    <rect x=" 210" y=" 250" width=" 10" height=" 10" fill="rgb(51,51,51)" />
    <rect x=" 220" y=" 250" width=" 10" height=" 10" fill="rgb(0,0,0)" />
    <rect x=" 230" y=" 250" width=" 10" height=" 10" fill="rgb(51,51,51)" />
    <rect x=" 240" y=" 250" width=" 10" height=" 10" fill="rgb(153,153,153)" />
    <rect x=" 250" y=" 250" width=" 10" height=" 10" fill="rgb(153,153,153)" />
    <rect x=" 260" y=" 250" width=" 10" height=" 10" fill="rgb(51,51,51)" />
    <rect x=" 270" y=" 250" width=" 10" height=" 10" fill="rgb(102,102,102)" />
    <rect x=" 280" y=" 250" width=" 10" height=" 10" fill="rgb(153,153,153)" />
    <rect x=" 290" y=" 250" width=" 10" height=" 10" fill="rgb(153,153,153)" />
    <rect x=" 300" y=" 250" width=" 10" height=" 10" fill="rgb(51,51,51)" />
    <rect x=" 310" y=" 250" width=" 10" height=" 10" fill="rgb(51,51,51)" />
    <rect x=" 320" y=" 250" width=" 10" height=" 10" fill="rgb(102,102,102)" />
    <rect x=" 330" y=" 250" width=" 10" height=" 10" fill="rgb(153,153,153)" />
    <rect x=" 340" y=" 250" width=" 10" height=" 10" fill="rgb(102,102,102)" />
    <rect x=" 350" y=" 250" width=" 10" height=" 10" fill="rgb(102,102,102)" />
    <rect x=" 360" y=" 250" width=" 10" height=" 10" fill="rgb(102,102,102)" />
    <rect x=" 370" y=" 250" width=" 10" height=" 10" fill="rgb(102,102,102)" />
    <rect x=" 380" y=" 250" width=" 10" height=" 10" fill="rgb(153,153,153)" />
    <rect x=" 390" y=" 250" width=" 10" height=" 10" fill="rgb(102,102,102)" />
    <rect x=" 400" y=" 250" width=" 10" height=" 10" fill="rgb(51,51,51)" />
    <rect x=" 410" y=" 250" width=" 10" height=" 10" fill="rgb(0,0,0)" />
    <rect x=" 420" y=" 250" width=" 10" height=" 10" fill="rgb(51,51,51)" />
    <rect x=" 430" y=" 250" width=" 10" height=" 10" fill="rgb(51,51,51)" />
    <rect x=" 440" y=" 250" width=" 10" height=" 10" fill="rgb(204,204,204)" />


    <rect x=" 190" y=" 260" width=" 10" height=" 10" fill="rgb(204,204,204)" />
    <rect x=" 200" y=" 260" width=" 10" height=" 10" fill="rgb(102,102,102)" />
    <rect x=" 210" y=" 260" width=" 10" height=" 10" fill="rgb(51,51,51)" />
    <rect x=" 220" y=" 260" width=" 10" height=" 10" fill="rgb(0,0,0)" />
    <rect x=" 230" y=" 260" width=" 10" height=" 10" fill="rgb(102,102,102)" />
    <rect x=" 240" y=" 260" width=" 10" height=" 10" fill="rgb(204,204,204)" />
    <rect x=" 250" y=" 260" width=" 10" height=" 10" fill="rgb(204,204,204)" />
    <rect x=" 260" y=" 260" width=" 10" height=" 10" fill="rgb(153,153,153)" />
    <rect x=" 270" y=" 260" width=" 10" height=" 10" fill="rgb(102,102,102)" />
    <rect x=" 280" y=" 260" width=" 10" height=" 10" fill="rgb(204,204,204)" />
    <rect x=" 290" y=" 260" width=" 10" height=" 10" fill="rgb(102,102,102)" />
    <rect x=" 300" y=" 260" width=" 10" height=" 10" fill="rgb(51,51,51)" />
    <rect x=" 310" y=" 260" width=" 10" height=" 10" fill="rgb(51,51,51)" />
    <rect x=" 320" y=" 260" width=" 10" height=" 10" fill="rgb(153,153,153)" />
    <rect x=" 330" y=" 260" width=" 10" height=" 10" fill="rgb(204,204,204)" />
    <rect x=" 340" y=" 260" width=" 10" height=" 10" fill="rgb(102,102,102)" />
    <rect x=" 350" y=" 260" width=" 10" height=" 10" fill="rgb(102,102,102)" />
    <rect x=" 360" y=" 260" width=" 10" height=" 10" fill="rgb(153,153,153)" />
    <rect x=" 370" y=" 260" width=" 10" height=" 10" fill="rgb(153,153,153)" />
    <rect x=" 380" y=" 260" width=" 10" height=" 10" fill="rgb(153,153,153)" />
    <rect x=" 390" y=" 260" width=" 10" height=" 10" fill="rgb(102,102,102)" />
    <rect x=" 400" y=" 260" width=" 10" height=" 10" fill="rgb(51,51,51)" />
    <rect x=" 410" y=" 260" width=" 10" height=" 10" fill="rgb(0,0,0)" />
    <rect x=" 420" y=" 260" width=" 10" height=" 10" fill="rgb(51,51,51)" />
    <rect x=" 430" y=" 260" width=" 10" height=" 10" fill="rgb(0,0,0)" />
    <rect x=" 440" y=" 260" width=" 10" height=" 10" fill="rgb(153,153,153)" />


    <rect x=" 180" y=" 270" width=" 10" height=" 10" fill="rgb(204,204,204)" />
    <rect x=" 190" y=" 270" width=" 10" height=" 10" fill="rgb(153,153,153)" />
    <rect x=" 200" y=" 270" width=" 10" height=" 10" fill="rgb(102,102,102)" />
    <rect x=" 210" y=" 270" width=" 10" height=" 10" fill="rgb(0,0,0)" />
    <rect x=" 220" y=" 270" width=" 10" height=" 10" fill="rgb(0,0,0)" />
    <rect x=" 230" y=" 270" width=" 10" height=" 10" fill="rgb(153,153,153)" />
    <rect x=" 240" y=" 270" width=" 10" height=" 10" fill="rgb(153,153,153)" />
    <rect x=" 250" y=" 270" width=" 10" height=" 10" fill="rgb(153,153,153)" />
    <rect x=" 260" y=" 270" width=" 10" height=" 10" fill="rgb(153,153,153)" />
    <rect x=" 270" y=" 270" width=" 10" height=" 10" fill="rgb(153,153,153)" />
    <rect x=" 280" y=" 270" width=" 10" height=" 10" fill="rgb(153,153,153)" />
    <rect x=" 290" y=" 270" width=" 10" height=" 10" fill="rgb(102,102,102)" />
    <rect x=" 300" y=" 270" width=" 10" height=" 10" fill="rgb(102,102,102)" />
    <rect x=" 310" y=" 270" width=" 10" height=" 10" fill="rgb(102,102,102)" />
    <rect x=" 320" y=" 270" width=" 10" height=" 10" fill="rgb(153,153,153)" />
    <rect x=" 330" y=" 270" width=" 10" height=" 10" fill="rgb(153,153,153)" />
    <rect x=" 340" y=" 270" width=" 10" height=" 10" fill="rgb(153,153,153)" />
    <rect x=" 350" y=" 270" width=" 10" height=" 10" fill="rgb(153,153,153)" />
    <rect x=" 360" y=" 270" width=" 10" height=" 10" fill="rgb(153,153,153)" />
    <rect x=" 370" y=" 270" width=" 10" height=" 10" fill="rgb(204,204,204)" />
    <rect x=" 380" y=" 270" width=" 10" height=" 10" fill="rgb(204,204,204)" />
    <rect x=" 390" y=" 270" width=" 10" height=" 10" fill="rgb(153,153,153)" />
    <rect x=" 400" y=" 270" width=" 10" height=" 10" fill="rgb(51,51,51)" />
    <rect x=" 410" y=" 270" width=" 10" height=" 10" fill="rgb(0,0,0)" />
    <rect x=" 420" y=" 270" width=" 10" height=" 10" fill="rgb(51,51,51)" />
    <rect x=" 430" y=" 270" width=" 10" height=" 10" fill="rgb(0,0,0)" />
    <rect x=" 440" y=" 270" width=" 10" height=" 10" fill="rgb(102,102,102)" />


    <rect x=" 180" y=" 280" width=" 10" height=" 10" fill="rgb(204,204,204)" />
    <rect x=" 190" y=" 280" width=" 10" height=" 10" fill="rgb(153,153,153)" />
    <rect x=" 200" y=" 280" width=" 10" height=" 10" fill="rgb(102,102,102)" />
    <rect x=" 210" y=" 280" width=" 10" height=" 10" fill="rgb(0,0,0)" />
    <rect x=" 220" y=" 280" width=" 10" height=" 10" fill="rgb(51,51,51)" />
    <rect x=" 230" y=" 280" width=" 10" height=" 10" fill="rgb(204,204,204)" />
    <rect x=" 240" y=" 280" width=" 10" height=" 10" fill="rgb(204,204,204)" />
    <rect x=" 250" y=" 280" width=" 10" height=" 10" fill="rgb(153,153,153)" />
    <rect x=" 260" y=" 280" width=" 10" height=" 10" fill="rgb(153,153,153)" />
    <rect x=" 270" y=" 280" width=" 10" height=" 10" fill="rgb(204,204,204)" />
    <rect x=" 280" y=" 280" width=" 10" height=" 10" fill="rgb(102,102,102)" />
    <rect x=" 290" y=" 280" width=" 10" height=" 10" fill="rgb(102,102,102)" />
    <rect x=" 300" y=" 280" width=" 10" height=" 10" fill="rgb(102,102,102)" />
    <rect x=" 310" y=" 280" width=" 10" height=" 10" fill="rgb(153,153,153)" />
    <rect x=" 320" y=" 280" width=" 10" height=" 10" fill="rgb(153,153,153)" />
    <rect x=" 330" y=" 280" width=" 10" height=" 10" fill="rgb(153,153,153)" />
    <rect x=" 340" y=" 280" width=" 10" height=" 10" fill="rgb(153,153,153)" />
    <rect x=" 350" y=" 280" width=" 10" height=" 10" fill="rgb(153,153,153)" />
    <rect x=" 360" y=" 280" width=" 10" height=" 10" fill="rgb(204,204,204)" />
    <rect x=" 370" y=" 280" width=" 10" height=" 10" fill="rgb(204,204,204)" />
    <rect x=" 380" y=" 280" width=" 10" height=" 10" fill="rgb(204,204,204)" />
    <rect x=" 390" y=" 280" width=" 10" height=" 10" fill="rgb(153,153,153)" />
    <rect x=" 400" y=" 280" width=" 10" height=" 10" fill="rgb(51,51,51)" />
    <rect x=" 410" y=" 280" width=" 10" height=" 10" fill="rgb(0,0,0)" />
    <rect x=" 420" y=" 280" width=" 10" height=" 10" fill="rgb(51,51,51)" />
    <rect x=" 430" y=" 280" width=" 10" height=" 10" fill="rgb(51,51,51)" />
    <rect x=" 440" y=" 280" width=" 10" height=" 10" fill="rgb(51,51,51)" />
    <rect x=" 450" y=" 280" width=" 10" height=" 10" fill="rgb(204,204,204)" />


    <rect x=" 180" y=" 290" width=" 10" height=" 10" fill="rgb(204,204,204)" />
    <rect x=" 190" y=" 290" width=" 10" height=" 10" fill="rgb(102,102,102)" />
    <rect x=" 200" y=" 290" width=" 10" height=" 10" fill="rgb(51,51,51)" />
    <rect x=" 210" y=" 290" width=" 10" height=" 10" fill="rgb(0,0,0)" />
    <rect x=" 220" y=" 290" width=" 10" height=" 10" fill="rgb(51,51,51)" />
    <rect x=" 230" y=" 290" width=" 10" height=" 10" fill="rgb(204,204,204)" />
    <rect x=" 240" y=" 290" width=" 10" height=" 10" fill="rgb(204,204,204)" />
    <rect x=" 250" y=" 290" width=" 10" height=" 10" fill="rgb(204,204,204)" />
    <rect x=" 260" y=" 290" width=" 10" height=" 10" fill="rgb(204,204,204)" />
    <rect x=" 270" y=" 290" width=" 10" height=" 10" fill="rgb(204,204,204)" />
    <rect x=" 280" y=" 290" width=" 10" height=" 10" fill="rgb(102,102,102)" />
    <rect x=" 290" y=" 290" width=" 10" height=" 10" fill="rgb(102,102,102)" />
    <rect x=" 300" y=" 290" width=" 10" height=" 10" fill="rgb(102,102,102)" />
    <rect x=" 310" y=" 290" width=" 10" height=" 10" fill="rgb(153,153,153)" />
    <rect x=" 320" y=" 290" width=" 10" height=" 10" fill="rgb(204,204,204)" />
    <rect x=" 330" y=" 290" width=" 10" height=" 10" fill="rgb(204,204,204)" />
    <rect x=" 340" y=" 290" width=" 10" height=" 10" fill="rgb(204,204,204)" />
    <rect x=" 350" y=" 290" width=" 10" height=" 10" fill="rgb(204,204,204)" />
    <rect x=" 360" y=" 290" width=" 10" height=" 10" fill="rgb(204,204,204)" />
    <rect x=" 370" y=" 290" width=" 10" height=" 10" fill="rgb(204,204,204)" />
    <rect x=" 380" y=" 290" width=" 10" height=" 10" fill="rgb(204,204,204)" />
    <rect x=" 390" y=" 290" width=" 10" height=" 10" fill="rgb(153,153,153)" />
    <rect x=" 400" y=" 290" width=" 10" height=" 10" fill="rgb(51,51,51)" />
    <rect x=" 410" y=" 290" width=" 10" height=" 10" fill="rgb(0,0,0)" />
    <rect x=" 420" y=" 290" width=" 10" height=" 10" fill="rgb(51,51,51)" />
    <rect x=" 430" y=" 290" width=" 10" height=" 10" fill="rgb(0,0,0)" />
    <rect x=" 440" y=" 290" width=" 10" height=" 10" fill="rgb(0,0,0)" />
    <rect x=" 450" y=" 290" width=" 10" height=" 10" fill="rgb(204,204,204)" />


    <rect x=" 180" y=" 300" width=" 10" height=" 10" fill="rgb(204,204,204)" />
    <rect x=" 190" y=" 300" width=" 10" height=" 10" fill="rgb(153,153,153)" />
    <rect x=" 200" y=" 300" width=" 10" height=" 10" fill="rgb(51,51,51)" />
    <rect x=" 210" y=" 300" width=" 10" height=" 10" fill="rgb(0,0,0)" />
    <rect x=" 220" y=" 300" width=" 10" height=" 10" fill="rgb(0,0,0)" />
    <rect x=" 230" y=" 300" width=" 10" height=" 10" fill="rgb(153,153,153)" />
    <rect x=" 240" y=" 300" width=" 10" height=" 10" fill="rgb(204,204,204)" />
    <rect x=" 250" y=" 300" width=" 10" height=" 10" fill="rgb(204,204,204)" />
    <rect x=" 260" y=" 300" width=" 10" height=" 10" fill="rgb(153,153,153)" />
    <rect x=" 270" y=" 300" width=" 10" height=" 10" fill="rgb(204,204,204)" />
    <rect x=" 280" y=" 300" width=" 10" height=" 10" fill="rgb(102,102,102)" />
    <rect x=" 290" y=" 300" width=" 10" height=" 10" fill="rgb(102,102,102)" />
    <rect x=" 300" y=" 300" width=" 10" height=" 10" fill="rgb(102,102,102)" />
    <rect x=" 310" y=" 300" width=" 10" height=" 10" fill="rgb(153,153,153)" />
    <rect x=" 320" y=" 300" width=" 10" height=" 10" fill="rgb(204,204,204)" />
    <rect x=" 330" y=" 300" width=" 10" height=" 10" fill="rgb(204,204,204)" />
    <rect x=" 340" y=" 300" width=" 10" height=" 10" fill="rgb(204,204,204)" />
    <rect x=" 350" y=" 300" width=" 10" height=" 10" fill="rgb(204,204,204)" />
    <rect x=" 360" y=" 300" width=" 10" height=" 10" fill="rgb(153,153,153)" />
    <rect x=" 370" y=" 300" width=" 10" height=" 10" fill="rgb(153,153,153)" />
    <rect x=" 380" y=" 300" width=" 10" height=" 10" fill="rgb(153,153,153)" />
    <rect x=" 390" y=" 300" width=" 10" height=" 10" fill="rgb(102,102,102)" />
    <rect x=" 400" y=" 300" width=" 10" height=" 10" fill="rgb(0,0,0)" />
    <rect x=" 410" y=" 300" width=" 10" height=" 10" fill="rgb(0,0,0)" />
    <rect x=" 420" y=" 300" width=" 10" height=" 10" fill="rgb(51,51,51)" />
    <rect x=" 430" y=" 300" width=" 10" height=" 10" fill="rgb(0,0,0)" />
    <rect x=" 440" y=" 300" width=" 10" height=" 10" fill="rgb(0,0,0)" />
    <rect x=" 450" y=" 300" width=" 10" height=" 10" fill="rgb(153,153,153)" />


    <rect x=" 180" y=" 310" width=" 10" height=" 10" fill="rgb(204,204,204)" />
    <rect x=" 190" y=" 310" width=" 10" height=" 10" fill="rgb(153,153,153)" />
    <rect x=" 200" y=" 310" width=" 10" height=" 10" fill="rgb(51,51,51)" />
    <rect x=" 210" y=" 310" width=" 10" height=" 10" fill="rgb(0,0,0)" />
    <rect x=" 220" y=" 310" width=" 10" height=" 10" fill="rgb(0,0,0)" />
    <rect x=" 230" y=" 310" width=" 10" height=" 10" fill="rgb(51,51,51)" />
    <rect x=" 240" y=" 310" width=" 10" height=" 10" fill="rgb(153,153,153)" />
    <rect x=" 250" y=" 310" width=" 10" height=" 10" fill="rgb(153,153,153)" />
    <rect x=" 260" y=" 310" width=" 10" height=" 10" fill="rgb(204,204,204)" />
    <rect x=" 270" y=" 310" width=" 10" height=" 10" fill="rgb(204,204,204)" />
    <rect x=" 280" y=" 310" width=" 10" height=" 10" fill="rgb(102,102,102)" />
    <rect x=" 290" y=" 310" width=" 10" height=" 10" fill="rgb(102,102,102)" />
    <rect x=" 300" y=" 310" width=" 10" height=" 10" fill="rgb(102,102,102)" />
    <rect x=" 310" y=" 310" width=" 10" height=" 10" fill="rgb(102,102,102)" />
    <rect x=" 320" y=" 310" width=" 10" height=" 10" fill="rgb(153,153,153)" />
    <rect x=" 330" y=" 310" width=" 10" height=" 10" fill="rgb(153,153,153)" />
    <rect x=" 340" y=" 310" width=" 10" height=" 10" fill="rgb(153,153,153)" />
    <rect x=" 350" y=" 310" width=" 10" height=" 10" fill="rgb(153,153,153)" />
    <rect x=" 360" y=" 310" width=" 10" height=" 10" fill="rgb(102,102,102)" />
    <rect x=" 370" y=" 310" width=" 10" height=" 10" fill="rgb(102,102,102)" />
    <rect x=" 380" y=" 310" width=" 10" height=" 10" fill="rgb(102,102,102)" />
    <rect x=" 390" y=" 310" width=" 10" height=" 10" fill="rgb(51,51,51)" />
    <rect x=" 400" y=" 310" width=" 10" height=" 10" fill="rgb(0,0,0)" />
    <rect x=" 410" y=" 310" width=" 10" height=" 10" fill="rgb(0,0,0)" />
    <rect x=" 420" y=" 310" width=" 10" height=" 10" fill="rgb(51,51,51)" />
    <rect x=" 430" y=" 310" width=" 10" height=" 10" fill="rgb(0,0,0)" />
    <rect x=" 440" y=" 310" width=" 10" height=" 10" fill="rgb(0,0,0)" />
    <rect x=" 450" y=" 310" width=" 10" height=" 10" fill="rgb(153,153,153)" />


    <rect x=" 180" y=" 320" width=" 10" height=" 10" fill="rgb(204,204,204)" />
    <rect x=" 190" y=" 320" width=" 10" height=" 10" fill="rgb(153,153,153)" />
    <rect x=" 200" y=" 320" width=" 10" height=" 10" fill="rgb(153,153,153)" />
    <rect x=" 210" y=" 320" width=" 10" height=" 10" fill="rgb(51,51,51)" />
    <rect x=" 220" y=" 320" width=" 10" height=" 10" fill="rgb(0,0,0)" />
    <rect x=" 230" y=" 320" width=" 10" height=" 10" fill="rgb(0,0,0)" />
    <rect x=" 240" y=" 320" width=" 10" height=" 10" fill="rgb(153,153,153)" />
    <rect x=" 250" y=" 320" width=" 10" height=" 10" fill="rgb(153,153,153)" />
    <rect x=" 260" y=" 320" width=" 10" height=" 10" fill="rgb(153,153,153)" />
    <rect x=" 270" y=" 320" width=" 10" height=" 10" fill="rgb(153,153,153)" />
    <rect x=" 280" y=" 320" width=" 10" height=" 10" fill="rgb(102,102,102)" />
    <rect x=" 290" y=" 320" width=" 10" height=" 10" fill="rgb(102,102,102)" />
    <rect x=" 300" y=" 320" width=" 10" height=" 10" fill="rgb(102,102,102)" />
    <rect x=" 310" y=" 320" width=" 10" height=" 10" fill="rgb(153,153,153)" />
    <rect x=" 320" y=" 320" width=" 10" height=" 10" fill="rgb(153,153,153)" />
    <rect x=" 330" y=" 320" width=" 10" height=" 10" fill="rgb(153,153,153)" />
    <rect x=" 340" y=" 320" width=" 10" height=" 10" fill="rgb(153,153,153)" />
    <rect x=" 350" y=" 320" width=" 10" height=" 10" fill="rgb(153,153,153)" />
    <rect x=" 360" y=" 320" width=" 10" height=" 10" fill="rgb(102,102,102)" />
    <rect x=" 370" y=" 320" width=" 10" height=" 10" fill="rgb(102,102,102)" />
    <rect x=" 380" y=" 320" width=" 10" height=" 10" fill="rgb(102,102,102)" />
    <rect x=" 390" y=" 320" width=" 10" height=" 10" fill="rgb(51,51,51)" />
    <rect x=" 400" y=" 320" width=" 10" height=" 10" fill="rgb(0,0,0)" />
    <rect x=" 410" y=" 320" width=" 10" height=" 10" fill="rgb(0,0,0)" />
    <rect x=" 420" y=" 320" width=" 10" height=" 10" fill="rgb(0,0,0)" />
    <rect x=" 430" y=" 320" width=" 10" height=" 10" fill="rgb(0,0,0)" />
    <rect x=" 440" y=" 320" width=" 10" height=" 10" fill="rgb(0,0,0)" />
    <rect x=" 450" y=" 320" width=" 10" height=" 10" fill="rgb(204,204,204)" />


    <rect x=" 180" y=" 330" width=" 10" height=" 10" fill="rgb(204,204,204)" />
    <rect x=" 190" y=" 330" width=" 10" height=" 10" fill="rgb(153,153,153)" />
    <rect x=" 200" y=" 330" width=" 10" height=" 10" fill="rgb(153,153,153)" />
    <rect x=" 210" y=" 330" width=" 10" height=" 10" fill="rgb(153,153,153)" />
    <rect x=" 220" y=" 330" width=" 10" height=" 10" fill="rgb(51,51,51)" />
    <rect x=" 230" y=" 330" width=" 10" height=" 10" fill="rgb(0,0,0)" />
    <rect x=" 240" y=" 330" width=" 10" height=" 10" fill="rgb(153,153,153)" />
    <rect x=" 250" y=" 330" width=" 10" height=" 10" fill="rgb(153,153,153)" />
    <rect x=" 260" y=" 330" width=" 10" height=" 10" fill="rgb(153,153,153)" />
    <rect x=" 270" y=" 330" width=" 10" height=" 10" fill="rgb(102,102,102)" />
    <rect x=" 280" y=" 330" width=" 10" height=" 10" fill="rgb(51,51,51)" />
    <rect x=" 290" y=" 330" width=" 10" height=" 10" fill="rgb(51,51,51)" />
    <rect x=" 300" y=" 330" width=" 10" height=" 10" fill="rgb(153,153,153)" />
    <rect x=" 310" y=" 330" width=" 10" height=" 10" fill="rgb(153,153,153)" />
    <rect x=" 320" y=" 330" width=" 10" height=" 10" fill="rgb(153,153,153)" />
    <rect x=" 330" y=" 330" width=" 10" height=" 10" fill="rgb(153,153,153)" />
    <rect x=" 340" y=" 330" width=" 10" height=" 10" fill="rgb(153,153,153)" />
    <rect x=" 350" y=" 330" width=" 10" height=" 10" fill="rgb(153,153,153)" />
    <rect x=" 360" y=" 330" width=" 10" height=" 10" fill="rgb(102,102,102)" />
    <rect x=" 370" y=" 330" width=" 10" height=" 10" fill="rgb(102,102,102)" />
    <rect x=" 380" y=" 330" width=" 10" height=" 10" fill="rgb(102,102,102)" />
    <rect x=" 390" y=" 330" width=" 10" height=" 10" fill="rgb(102,102,102)" />
    <rect x=" 400" y=" 330" width=" 10" height=" 10" fill="rgb(51,51,51)" />
    <rect x=" 410" y=" 330" width=" 10" height=" 10" fill="rgb(51,51,51)" />
    <rect x=" 420" y=" 330" width=" 10" height=" 10" fill="rgb(0,0,0)" />
    <rect x=" 430" y=" 330" width=" 10" height=" 10" fill="rgb(0,0,0)" />
    <rect x=" 440" y=" 330" width=" 10" height=" 10" fill="rgb(0,0,0)" />
    <rect x=" 450" y=" 330" width=" 10" height=" 10" fill="rgb(204,204,204)" />


    <rect x=" 180" y=" 340" width=" 10" height=" 10" fill="rgb(204,204,204)" />
    <rect x=" 190" y=" 340" width=" 10" height=" 10" fill="rgb(153,153,153)" />
    <rect x=" 200" y=" 340" width=" 10" height=" 10" fill="rgb(153,153,153)" />
    <rect x=" 210" y=" 340" width=" 10" height=" 10" fill="rgb(153,153,153)" />
    <rect x=" 220" y=" 340" width=" 10" height=" 10" fill="rgb(153,153,153)" />
    <rect x=" 230" y=" 340" width=" 10" height=" 10" fill="rgb(102,102,102)" />
    <rect x=" 240" y=" 340" width=" 10" height=" 10" fill="rgb(153,153,153)" />
    <rect x=" 250" y=" 340" width=" 10" height=" 10" fill="rgb(153,153,153)" />
    <rect x=" 260" y=" 340" width=" 10" height=" 10" fill="rgb(153,153,153)" />
    <rect x=" 270" y=" 340" width=" 10" height=" 10" fill="rgb(153,153,153)" />
    <rect x=" 280" y=" 340" width=" 10" height=" 10" fill="rgb(102,102,102)" />
    <rect x=" 290" y=" 340" width=" 10" height=" 10" fill="rgb(153,153,153)" />
    <rect x=" 300" y=" 340" width=" 10" height=" 10" fill="rgb(153,153,153)" />
    <rect x=" 310" y=" 340" width=" 10" height=" 10" fill="rgb(153,153,153)" />
    <rect x=" 320" y=" 340" width=" 10" height=" 10" fill="rgb(153,153,153)" />
    <rect x=" 330" y=" 340" width=" 10" height=" 10" fill="rgb(153,153,153)" />
    <rect x=" 340" y=" 340" width=" 10" height=" 10" fill="rgb(153,153,153)" />
    <rect x=" 350" y=" 340" width=" 10" height=" 10" fill="rgb(102,102,102)" />
    <rect x=" 360" y=" 340" width=" 10" height=" 10" fill="rgb(102,102,102)" />
    <rect x=" 370" y=" 340" width=" 10" height=" 10" fill="rgb(153,153,153)" />
    <rect x=" 380" y=" 340" width=" 10" height=" 10" fill="rgb(102,102,102)" />
    <rect x=" 390" y=" 340" width=" 10" height=" 10" fill="rgb(102,102,102)" />
    <rect x=" 400" y=" 340" width=" 10" height=" 10" fill="rgb(51,51,51)" />
    <rect x=" 410" y=" 340" width=" 10" height=" 10" fill="rgb(51,51,51)" />
    <rect x=" 420" y=" 340" width=" 10" height=" 10" fill="rgb(0,0,0)" />
    <rect x=" 430" y=" 340" width=" 10" height=" 10" fill="rgb(0,0,0)" />
    <rect x=" 440" y=" 340" width=" 10" height=" 10" fill="rgb(51,51,51)" />
    <rect x=" 450" y=" 340" width=" 10" height=" 10" fill="rgb(204,204,204)" />


    <rect x=" 190" y=" 350" width=" 10" height=" 10" fill="rgb(153,153,153)" />
    <rect x=" 200" y=" 350" width=" 10" height=" 10" fill="rgb(153,153,153)" />
    <rect x=" 210" y=" 350" width=" 10" height=" 10" fill="rgb(153,153,153)" />
    <rect x=" 220" y=" 350" width=" 10" height=" 10" fill="rgb(153,153,153)" />
    <rect x=" 230" y=" 350" width=" 10" height=" 10" fill="rgb(153,153,153)" />
    <rect x=" 240" y=" 350" width=" 10" height=" 10" fill="rgb(153,153,153)" />
    <rect x=" 250" y=" 350" width=" 10" height=" 10" fill="rgb(153,153,153)" />
    <rect x=" 260" y=" 350" width=" 10" height=" 10" fill="rgb(204,204,204)" />
    <rect x=" 270" y=" 350" width=" 10" height=" 10" fill="rgb(204,204,204)" />
    <rect x=" 280" y=" 350" width=" 10" height=" 10" fill="rgb(153,153,153)" />
    <rect x=" 290" y=" 350" width=" 10" height=" 10" fill="rgb(204,204,204)" />
    <rect x=" 300" y=" 350" width=" 10" height=" 10" fill="rgb(153,153,153)" />
    <rect x=" 310" y=" 350" width=" 10" height=" 10" fill="rgb(153,153,153)" />
    <rect x=" 320" y=" 350" width=" 10" height=" 10" fill="rgb(153,153,153)" />
    <rect x=" 330" y=" 350" width=" 10" height=" 10" fill="rgb(153,153,153)" />
    <rect x=" 340" y=" 350" width=" 10" height=" 10" fill="rgb(153,153,153)" />
    <rect x=" 350" y=" 350" width=" 10" height=" 10" fill="rgb(102,102,102)" />
    <rect x=" 360" y=" 350" width=" 10" height=" 10" fill="rgb(102,102,102)" />
    <rect x=" 370" y=" 350" width=" 10" height=" 10" fill="rgb(153,153,153)" />
    <rect x=" 380" y=" 350" width=" 10" height=" 10" fill="rgb(102,102,102)" />
    <rect x=" 390" y=" 350" width=" 10" height=" 10" fill="rgb(102,102,102)" />
    <rect x=" 400" y=" 350" width=" 10" height=" 10" fill="rgb(51,51,51)" />
    <rect x=" 410" y=" 350" width=" 10" height=" 10" fill="rgb(51,51,51)" />
    <rect x=" 420" y=" 350" width=" 10" height=" 10" fill="rgb(0,0,0)" />
    <rect x=" 430" y=" 350" width=" 10" height=" 10" fill="rgb(0,0,0)" />
    <rect x=" 440" y=" 350" width=" 10" height=" 10" fill="rgb(102,102,102)" />


    <rect x=" 190" y=" 360" width=" 10" height=" 10" fill="rgb(204,204,204)" />
    <rect x=" 200" y=" 360" width=" 10" height=" 10" fill="rgb(153,153,153)" />
    <rect x=" 210" y=" 360" width=" 10" height=" 10" fill="rgb(153,153,153)" />
    <rect x=" 220" y=" 360" width=" 10" height=" 10" fill="rgb(153,153,153)" />
    <rect x=" 230" y=" 360" width=" 10" height=" 10" fill="rgb(153,153,153)" />
    <rect x=" 240" y=" 360" width=" 10" height=" 10" fill="rgb(153,153,153)" />
    <rect x=" 250" y=" 360" width=" 10" height=" 10" fill="rgb(153,153,153)" />
    <rect x=" 260" y=" 360" width=" 10" height=" 10" fill="rgb(153,153,153)" />
    <rect x=" 270" y=" 360" width=" 10" height=" 10" fill="rgb(102,102,102)" />
    <rect x=" 280" y=" 360" width=" 10" height=" 10" fill="rgb(102,102,102)" />
    <rect x=" 290" y=" 360" width=" 10" height=" 10" fill="rgb(102,102,102)" />
    <rect x=" 300" y=" 360" width=" 10" height=" 10" fill="rgb(102,102,102)" />
    <rect x=" 310" y=" 360" width=" 10" height=" 10" fill="rgb(153,153,153)" />
    <rect x=" 320" y=" 360" width=" 10" height=" 10" fill="rgb(153,153,153)" />
    <rect x=" 330" y=" 360" width=" 10" height=" 10" fill="rgb(153,153,153)" />
    <rect x=" 340" y=" 360" width=" 10" height=" 10" fill="rgb(153,153,153)" />
    <rect x=" 350" y=" 360" width=" 10" height=" 10" fill="rgb(102,102,102)" />
    <rect x=" 360" y=" 360" width=" 10" height=" 10" fill="rgb(102,102,102)" />
    <rect x=" 370" y=" 360" width=" 10" height=" 10" fill="rgb(153,153,153)" />
    <rect x=" 380" y=" 360" width=" 10" height=" 10" fill="rgb(102,102,102)" />
    <rect x=" 390" y=" 360" width=" 10" height=" 10" fill="rgb(102,102,102)" />
    <rect x=" 400" y=" 360" width=" 10" height=" 10" fill="rgb(51,51,51)" />
    <rect x=" 410" y=" 360" width=" 10" height=" 10" fill="rgb(51,51,51)" />
    <rect x=" 420" y=" 360" width=" 10" height=" 10" fill="rgb(0,0,0)" />
    <rect x=" 430" y=" 360" width=" 10" height=" 10" fill="rgb(0,0,0)" />
    <rect x=" 440" y=" 360" width=" 10" height=" 10" fill="rgb(204,204,204)" />


    <rect x=" 190" y=" 370" width=" 10" height=" 10" fill="rgb(204,204,204)" />
    <rect x=" 200" y=" 370" width=" 10" height=" 10" fill="rgb(153,153,153)" />
    <rect x=" 210" y=" 370" width=" 10" height=" 10" fill="rgb(153,153,153)" />
    <rect x=" 220" y=" 370" width=" 10" height=" 10" fill="rgb(153,153,153)" />
    <rect x=" 230" y=" 370" width=" 10" height=" 10" fill="rgb(153,153,153)" />
    <rect x=" 240" y=" 370" width=" 10" height=" 10" fill="rgb(153,153,153)" />
    <rect x=" 250" y=" 370" width=" 10" height=" 10" fill="rgb(153,153,153)" />
    <rect x=" 260" y=" 370" width=" 10" height=" 10" fill="rgb(153,153,153)" />
    <rect x=" 270" y=" 370" width=" 10" height=" 10" fill="rgb(102,102,102)" />
    <rect x=" 280" y=" 370" width=" 10" height=" 10" fill="rgb(102,102,102)" />
    <rect x=" 290" y=" 370" width=" 10" height=" 10" fill="rgb(102,102,102)" />
    <rect x=" 300" y=" 370" width=" 10" height=" 10" fill="rgb(102,102,102)" />
    <rect x=" 310" y=" 370" width=" 10" height=" 10" fill="rgb(153,153,153)" />
    <rect x=" 320" y=" 370" width=" 10" height=" 10" fill="rgb(153,153,153)" />
    <rect x=" 330" y=" 370" width=" 10" height=" 10" fill="rgb(153,153,153)" />
    <rect x=" 340" y=" 370" width=" 10" height=" 10" fill="rgb(153,153,153)" />
    <rect x=" 350" y=" 370" width=" 10" height=" 10" fill="rgb(102,102,102)" />
    <rect x=" 360" y=" 370" width=" 10" height=" 10" fill="rgb(102,102,102)" />
    <rect x=" 370" y=" 370" width=" 10" height=" 10" fill="rgb(153,153,153)" />
    <rect x=" 380" y=" 370" width=" 10" height=" 10" fill="rgb(102,102,102)" />
    <rect x=" 390" y=" 370" width=" 10" height=" 10" fill="rgb(51,51,51)" />
    <rect x=" 400" y=" 370" width=" 10" height=" 10" fill="rgb(51,51,51)" />
    <rect x=" 410" y=" 370" width=" 10" height=" 10" fill="rgb(51,51,51)" />
    <rect x=" 420" y=" 370" width=" 10" height=" 10" fill="rgb(0,0,0)" />
    <rect x=" 430" y=" 370" width=" 10" height=" 10" fill="rgb(51,51,51)" />
    <rect x=" 440" y=" 370" width=" 10" height=" 10" fill="rgb(204,204,204)" />


    <rect x=" 200" y=" 380" width=" 10" height=" 10" fill="rgb(204,204,204)" />
    <rect x=" 210" y=" 380" width=" 10" height=" 10" fill="rgb(153,153,153)" />
    <rect x=" 220" y=" 380" width=" 10" height=" 10" fill="rgb(153,153,153)" />
    <rect x=" 230" y=" 380" width=" 10" height=" 10" fill="rgb(153,153,153)" />
    <rect x=" 240" y=" 380" width=" 10" height=" 10" fill="rgb(102,102,102)" />
    <rect x=" 250" y=" 380" width=" 10" height=" 10" fill="rgb(153,153,153)" />
    <rect x=" 260" y=" 380" width=" 10" height=" 10" fill="rgb(153,153,153)" />
    <rect x=" 270" y=" 380" width=" 10" height=" 10" fill="rgb(102,102,102)" />
    <rect x=" 280" y=" 380" width=" 10" height=" 10" fill="rgb(102,102,102)" />
    <rect x=" 290" y=" 380" width=" 10" height=" 10" fill="rgb(102,102,102)" />
    <rect x=" 300" y=" 380" width=" 10" height=" 10" fill="rgb(153,153,153)" />
    <rect x=" 310" y=" 380" width=" 10" height=" 10" fill="rgb(153,153,153)" />
    <rect x=" 320" y=" 380" width=" 10" height=" 10" fill="rgb(153,153,153)" />
    <rect x=" 330" y=" 380" width=" 10" height=" 10" fill="rgb(153,153,153)" />
    <rect x=" 340" y=" 380" width=" 10" height=" 10" fill="rgb(102,102,102)" />
    <rect x=" 350" y=" 380" width=" 10" height=" 10" fill="rgb(102,102,102)" />
    <rect x=" 360" y=" 380" width=" 10" height=" 10" fill="rgb(102,102,102)" />
    <rect x=" 370" y=" 380" width=" 10" height=" 10" fill="rgb(153,153,153)" />
    <rect x=" 380" y=" 380" width=" 10" height=" 10" fill="rgb(51,51,51)" />
    <rect x=" 390" y=" 380" width=" 10" height=" 10" fill="rgb(51,51,51)" />
    <rect x=" 400" y=" 380" width=" 10" height=" 10" fill="rgb(51,51,51)" />
    <rect x=" 410" y=" 380" width=" 10" height=" 10" fill="rgb(102,102,102)" />
    <rect x=" 420" y=" 380" width=" 10" height=" 10" fill="rgb(0,0,0)" />
    <rect x=" 430" y=" 380" width=" 10" height=" 10" fill="rgb(204,204,204)" />


    <rect x=" 210" y=" 390" width=" 10" height=" 10" fill="rgb(204,204,204)" />
    <rect x=" 220" y=" 390" width=" 10" height=" 10" fill="rgb(153,153,153)" />
    <rect x=" 230" y=" 390" width=" 10" height=" 10" fill="rgb(153,153,153)" />
    <rect x=" 240" y=" 390" width=" 10" height=" 10" fill="rgb(153,153,153)" />
    <rect x=" 250" y=" 390" width=" 10" height=" 10" fill="rgb(153,153,153)" />
    <rect x=" 260" y=" 390" width=" 10" height=" 10" fill="rgb(153,153,153)" />
    <rect x=" 270" y=" 390" width=" 10" height=" 10" fill="rgb(204,204,204)" />
    <rect x=" 280" y=" 390" width=" 10" height=" 10" fill="rgb(153,153,153)" />
    <rect x=" 290" y=" 390" width=" 10" height=" 10" fill="rgb(153,153,153)" />
    <rect x=" 300" y=" 390" width=" 10" height=" 10" fill="rgb(153,153,153)" />
    <rect x=" 310" y=" 390" width=" 10" height=" 10" fill="rgb(153,153,153)" />
    <rect x=" 320" y=" 390" width=" 10" height=" 10" fill="rgb(153,153,153)" />
    <rect x=" 330" y=" 390" width=" 10" height=" 10" fill="rgb(153,153,153)" />
    <rect x=" 340" y=" 390" width=" 10" height=" 10" fill="rgb(102,102,102)" />
    <rect x=" 350" y=" 390" width=" 10" height=" 10" fill="rgb(102,102,102)" />
    <rect x=" 360" y=" 390" width=" 10" height=" 10" fill="rgb(102,102,102)" />
    <rect x=" 370" y=" 390" width=" 10" height=" 10" fill="rgb(51,51,51)" />
    <rect x=" 380" y=" 390" width=" 10" height=" 10" fill="rgb(51,51,51)" />
    <rect x=" 390" y=" 390" width=" 10" height=" 10" fill="rgb(51,51,51)" />
    <rect x=" 400" y=" 390" width=" 10" height=" 10" fill="rgb(102,102,102)" />
    <rect x=" 410" y=" 390" width=" 10" height=" 10" fill="rgb(102,102,102)" />
    <rect x=" 420" y=" 390" width=" 10" height=" 10" fill="rgb(153,153,153)" />


    <rect x=" 210" y=" 400" width=" 10" height=" 10" fill="rgb(204,204,204)" />
    <rect x=" 220" y=" 400" width=" 10" height=" 10" fill="rgb(153,153,153)" />
    <rect x=" 230" y=" 400" width=" 10" height=" 10" fill="rgb(153,153,153)" />
    <rect x=" 240" y=" 400" width=" 10" height=" 10" fill="rgb(153,153,153)" />
    <rect x=" 250" y=" 400" width=" 10" height=" 10" fill="rgb(153,153,153)" />
    <rect x=" 260" y=" 400" width=" 10" height=" 10" fill="rgb(204,204,204)" />
    <rect x=" 270" y=" 400" width=" 10" height=" 10" fill="rgb(204,204,204)" />
    <rect x=" 280" y=" 400" width=" 10" height=" 10" fill="rgb(204,204,204)" />
    <rect x=" 290" y=" 400" width=" 10" height=" 10" fill="rgb(204,204,204)" />
    <rect x=" 300" y=" 400" width=" 10" height=" 10" fill="rgb(204,204,204)" />
    <rect x=" 310" y=" 400" width=" 10" height=" 10" fill="rgb(153,153,153)" />
    <rect x=" 320" y=" 400" width=" 10" height=" 10" fill="rgb(153,153,153)" />
    <rect x=" 330" y=" 400" width=" 10" height=" 10" fill="rgb(153,153,153)" />
    <rect x=" 340" y=" 400" width=" 10" height=" 10" fill="rgb(102,102,102)" />
    <rect x=" 350" y=" 400" width=" 10" height=" 10" fill="rgb(102,102,102)" />
    <rect x=" 360" y=" 400" width=" 10" height=" 10" fill="rgb(51,51,51)" />
    <rect x=" 370" y=" 400" width=" 10" height=" 10" fill="rgb(0,0,0)" />
    <rect x=" 380" y=" 400" width=" 10" height=" 10" fill="rgb(51,51,51)" />
    <rect x=" 390" y=" 400" width=" 10" height=" 10" fill="rgb(153,153,153)" />
    <rect x=" 400" y=" 400" width=" 10" height=" 10" fill="rgb(153,153,153)" />
    <rect x=" 410" y=" 400" width=" 10" height=" 10" fill="rgb(153,153,153)" />


    <rect x=" 220" y=" 410" width=" 10" height=" 10" fill="rgb(204,204,204)" />
    <rect x=" 230" y=" 410" width=" 10" height=" 10" fill="rgb(204,204,204)" />
    <rect x=" 240" y=" 410" width=" 10" height=" 10" fill="rgb(153,153,153)" />
    <rect x=" 250" y=" 410" width=" 10" height=" 10" fill="rgb(153,153,153)" />
    <rect x=" 260" y=" 410" width=" 10" height=" 10" fill="rgb(204,204,204)" />
    <rect x=" 270" y=" 410" width=" 10" height=" 10" fill="rgb(204,204,204)" />
    <rect x=" 280" y=" 410" width=" 10" height=" 10" fill="rgb(204,204,204)" />
    <rect x=" 290" y=" 410" width=" 10" height=" 10" fill="rgb(204,204,204)" />
    <rect x=" 300" y=" 410" width=" 10" height=" 10" fill="rgb(204,204,204)" />
    <rect x=" 310" y=" 410" width=" 10" height=" 10" fill="rgb(153,153,153)" />
    <rect x=" 320" y=" 410" width=" 10" height=" 10" fill="rgb(153,153,153)" />
    <rect x=" 330" y=" 410" width=" 10" height=" 10" fill="rgb(102,102,102)" />
    <rect x=" 340" y=" 410" width=" 10" height=" 10" fill="rgb(102,102,102)" />
    <rect x=" 350" y=" 410" width=" 10" height=" 10" fill="rgb(51,51,51)" />
    <rect x=" 360" y=" 410" width=" 10" height=" 10" fill="rgb(0,0,0)" />
    <rect x=" 370" y=" 410" width=" 10" height=" 10" fill="rgb(51,51,51)" />
    <rect x=" 380" y=" 410" width=" 10" height=" 10" fill="rgb(153,153,153)" />
    <rect x=" 390" y=" 410" width=" 10" height=" 10" fill="rgb(153,153,153)" />
    <rect x=" 400" y=" 410" width=" 10" height=" 10" fill="rgb(204,204,204)" />
    <rect x=" 410" y=" 410" width=" 10" height=" 10" fill="rgb(204,204,204)" />


    <rect x=" 240" y=" 420" width=" 10" height=" 10" fill="rgb(204,204,204)" />
    <rect x=" 250" y=" 420" width=" 10" height=" 10" fill="rgb(153,153,153)" />
    <rect x=" 260" y=" 420" width=" 10" height=" 10" fill="rgb(153,153,153)" />
    <rect x=" 270" y=" 420" width=" 10" height=" 10" fill="rgb(204,204,204)" />
    <rect x=" 280" y=" 420" width=" 10" height=" 10" fill="rgb(204,204,204)" />
    <rect x=" 290" y=" 420" width=" 10" height=" 10" fill="rgb(204,204,204)" />
    <rect x=" 300" y=" 420" width=" 10" height=" 10" fill="rgb(204,204,204)" />
    <rect x=" 310" y=" 420" width=" 10" height=" 10" fill="rgb(153,153,153)" />
    <rect x=" 320" y=" 420" width=" 10" height=" 10" fill="rgb(102,102,102)" />
    <rect x=" 330" y=" 420" width=" 10" height=" 10" fill="rgb(51,51,51)" />
    <rect x=" 340" y=" 420" width=" 10" height=" 10" fill="rgb(51,51,51)" />
    <rect x=" 350" y=" 420" width=" 10" height=" 10" fill="rgb(0,0,0)" />
    <rect x=" 360" y=" 420" width=" 10" height=" 10" fill="rgb(51,51,51)" />
    <rect x=" 370" y=" 420" width=" 10" height=" 10" fill="rgb(102,102,102)" />
    <rect x=" 380" y=" 420" width=" 10" height=" 10" fill="rgb(153,153,153)" />
    <rect x=" 390" y=" 420" width=" 10" height=" 10" fill="rgb(204,204,204)" />


    <rect x=" 250" y=" 430" width=" 10" height=" 10" fill="rgb(204,204,204)" />
    <rect x=" 260" y=" 430" width=" 10" height=" 10" fill="rgb(153,153,153)" />
    <rect x=" 270" y=" 430" width=" 10" height=" 10" fill="rgb(153,153,153)" />
    <rect x=" 280" y=" 430" width=" 10" height=" 10" fill="rgb(153,153,153)" />
    <rect x=" 290" y=" 430" width=" 10" height=" 10" fill="rgb(153,153,153)" />
    <rect x=" 300" y=" 430" width=" 10" height=" 10" fill="rgb(102,102,102)" />
    <rect x=" 310" y=" 430" width=" 10" height=" 10" fill="rgb(51,51,51)" />
    <rect x=" 320" y=" 430" width=" 10" height=" 10" fill="rgb(0,0,0)" />
    <rect x=" 330" y=" 430" width=" 10" height=" 10" fill="rgb(0,0,0)" />
    <rect x=" 340" y=" 430" width=" 10" height=" 10" fill="rgb(51,51,51)" />
    <rect x=" 350" y=" 430" width=" 10" height=" 10" fill="rgb(102,102,102)" />
    <rect x=" 360" y=" 430" width=" 10" height=" 10" fill="rgb(153,153,153)" />
    <rect x=" 370" y=" 430" width=" 10" height=" 10" fill="rgb(204,204,204)" />
    <rect x=" 380" y=" 430" width=" 10" height=" 10" fill="rgb(204,204,204)" />


    <rect x=" 270" y=" 440" width=" 10" height=" 10" fill="rgb(204,204,204)" />
    <rect x=" 280" y=" 440" width=" 10" height=" 10" fill="rgb(204,204,204)" />
    <rect x=" 290" y=" 440" width=" 10" height=" 10" fill="rgb(153,153,153)" />
    <rect x=" 300" y=" 440" width=" 10" height=" 10" fill="rgb(102,102,102)" />
    <rect x=" 310" y=" 440" width=" 10" height=" 10" fill="rgb(102,102,102)" />
    <rect x=" 320" y=" 440" width=" 10" height=" 10" fill="rgb(102,102,102)" />
    <rect x=" 330" y=" 440" width=" 10" height=" 10" fill="rgb(102,102,102)" />
    <rect x=" 340" y=" 440" width=" 10" height=" 10" fill="rgb(153,153,153)" />
    <rect x=" 350" y=" 440" width=" 10" height=" 10" fill="rgb(204,204,204)" />
    <rect x=" 360" y=" 440" width=" 10" height=" 10" fill="rgb(204,204,204)" />


  </g>

</svg>